<svg xmlns="http://www.w3.org/2000/svg" viewBox="0 0 1200 800" role="img" aria-labelledby="title desc">
  <title id="title">Coastal blue hour placeholder</title>
  <desc id="desc">A stylized coast scene with waves, cliffs, and a setting sun.</desc>
  <defs>
    <pattern id="dots" width="28" height="28" patternUnits="userSpaceOnUse">
      <circle cx="7" cy="7" r="4" fill="#fffaf3" opacity=".38"/>
    </pattern>
  </defs>
  <rect width="1200" height="800" fill="#00d5ff"/>
  <path d="M0 0h1200v292L0 176Z" fill="#050505"/>
  <circle cx="254" cy="164" r="100" fill="#ffd100" stroke="#050505" stroke-width="12"/>
  <path d="M760 276 1200 142v658H760Z" fill="#e50914" stroke="#050505" stroke-width="12"/>
  <path d="M852 328 1200 234v566H852Z" fill="#fffaf3" stroke="#050505" stroke-width="10"/>
  <path d="M0 520c110-54 204-54 318 0s218 54 326 0 218-54 326 0 156 48 230 34v246H0Z" fill="#fffaf3" stroke="#050505" stroke-width="12"/>
  <path d="M0 622c126-50 230-50 354 0s216 50 334 0 202-50 306 0 142 40 206 24v154H0Z" fill="#050505"/>
  <path d="M82 704c118-48 214-48 330 0s218 48 330 0 204-48 314 0" fill="none" stroke="#00d5ff" stroke-width="16" stroke-linecap="round"/>
  <rect x="112" y="324" width="364" height="112" fill="#fffaf3" stroke="#050505" stroke-width="12" transform="rotate(5 294 380)"/>
  <text x="294" y="404" text-anchor="middle" font-family="Impact, Arial Black, sans-serif" font-size="74" fill="#e50914">COAST</text>
  <rect width="1200" height="800" fill="url(#dots)"/>
</svg>
