<svg xmlns="http://www.w3.org/2000/svg" viewBox="0 0 1200 800" role="img" aria-labelledby="title desc">
  <title id="title">Street food market placeholder</title>
  <desc id="desc">A stylized street food table with bowls, signs, and bold comic colors.</desc>
  <defs>
    <pattern id="dots" width="24" height="24" patternUnits="userSpaceOnUse">
      <circle cx="6" cy="6" r="3.8" fill="#050505" opacity=".28"/>
    </pattern>
  </defs>
  <rect width="1200" height="800" fill="#fff1df"/>
  <path d="M0 0h1200v238L0 366Z" fill="#e50914"/>
  <path d="M0 88 1200 210v74L0 176Z" fill="#050505"/>
  <path d="M0 546h1200v254H0Z" fill="#050505"/>
  <path d="M90 490h1020v112H90Z" fill="#ffd100" stroke="#050505" stroke-width="12"/>
  <ellipse cx="360" cy="466" rx="174" ry="76" fill="#fffaf3" stroke="#050505" stroke-width="12"/>
  <ellipse cx="360" cy="448" rx="108" ry="36" fill="#e50914"/>
  <path d="M255 423c54 36 151 36 210 0" fill="none" stroke="#050505" stroke-width="14" stroke-linecap="round"/>
  <ellipse cx="760" cy="464" rx="190" ry="82" fill="#fffaf3" stroke="#050505" stroke-width="12"/>
  <circle cx="700" cy="442" r="32" fill="#00d5ff" stroke="#050505" stroke-width="8"/>
  <circle cx="790" cy="452" r="42" fill="#ffd100" stroke="#050505" stroke-width="8"/>
  <circle cx="850" cy="432" r="28" fill="#e50914" stroke="#050505" stroke-width="8"/>
  <rect x="198" y="176" width="276" height="110" fill="#fffaf3" stroke="#050505" stroke-width="12" transform="rotate(-5 336 231)"/>
  <text x="336" y="254" text-anchor="middle" font-family="Impact, Arial Black, sans-serif" font-size="70" fill="#e50914">FOOD</text>
  <rect x="714" y="116" width="304" height="118" fill="#00d5ff" stroke="#050505" stroke-width="12" transform="rotate(6 866 175)"/>
  <text x="866" y="198" text-anchor="middle" font-family="Impact, Arial Black, sans-serif" font-size="64" fill="#050505">NIGHT</text>
  <path d="M144 800 424 602h156L330 800Z" fill="#fffaf3"/>
  <path d="M732 800 930 602h120L890 800Z" fill="#fffaf3"/>
  <rect width="1200" height="800" fill="url(#dots)"/>
</svg>
