<svg xmlns="http://www.w3.org/2000/svg" viewBox="0 0 1200 800" role="img" aria-labelledby="title desc">
  <title id="title">Museum city placeholder</title>
  <desc id="desc">A stylized museum facade with angular windows and high contrast colors.</desc>
  <defs>
    <pattern id="dots" width="24" height="24" patternUnits="userSpaceOnUse">
      <circle cx="6" cy="6" r="3.5" fill="#050505" opacity=".2"/>
    </pattern>
  </defs>
  <rect width="1200" height="800" fill="#fffaf3"/>
  <path d="M0 0h1200v286L0 142Z" fill="#00d5ff"/>
  <path d="M0 128 1200 0v104L0 312Z" fill="#e50914"/>
  <path d="M150 260h900l82 92H68Z" fill="#050505"/>
  <path d="M118 352h964v338H118Z" fill="#fffaf3" stroke="#050505" stroke-width="14"/>
  <g stroke="#050505" stroke-width="12" fill="#ffd100">
    <path d="M190 404h136v220H190Z"/>
    <path d="M402 404h136v220H402Z"/>
    <path d="M614 404h136v220H614Z"/>
    <path d="M826 404h136v220H826Z"/>
  </g>
  <path d="M118 690h964v110H118Z" fill="#050505"/>
  <path d="M228 800 430 690h128L386 800Z" fill="#fffaf3"/>
  <path d="M680 800 802 690h118L840 800Z" fill="#fffaf3"/>
  <rect x="372" y="138" width="456" height="112" fill="#fffaf3" stroke="#050505" stroke-width="12" transform="rotate(-3 600 194)"/>
  <text x="600" y="218" text-anchor="middle" font-family="Impact, Arial Black, sans-serif" font-size="70" fill="#e50914">MUSEUM</text>
  <rect width="1200" height="800" fill="url(#dots)"/>
</svg>
