<svg xmlns="http://www.w3.org/2000/svg" viewBox="0 0 1200 800" role="img" aria-labelledby="title desc">
  <title id="title">Neon city crossing placeholder</title>
  <desc id="desc">A stylized red, black, yellow, and cyan city crossing scene.</desc>
  <defs>
    <pattern id="dots" width="28" height="28" patternUnits="userSpaceOnUse">
      <circle cx="7" cy="7" r="4" fill="#fffaf3" opacity=".55"/>
    </pattern>
    <linearGradient id="sky" x1="0" x2="1" y1="0" y2="1">
      <stop offset="0" stop-color="#050505"/>
      <stop offset=".52" stop-color="#1b0a0d"/>
      <stop offset="1" stop-color="#e50914"/>
    </linearGradient>
  </defs>
  <rect width="1200" height="800" fill="url(#sky)"/>
  <path d="M0 90 1200 0v178L0 282Z" fill="#e50914"/>
  <path d="M0 178 1200 74v44L0 322Z" fill="#fffaf3"/>
  <rect x="48" y="90" width="170" height="540" fill="#0b0b0d" stroke="#fffaf3" stroke-width="10"/>
  <rect x="255" y="148" width="145" height="492" fill="#0b0b0d" stroke="#fffaf3" stroke-width="10"/>
  <rect x="775" y="108" width="145" height="522" fill="#0b0b0d" stroke="#fffaf3" stroke-width="10"/>
  <rect x="950" y="68" width="190" height="562" fill="#0b0b0d" stroke="#fffaf3" stroke-width="10"/>
  <g fill="#ffd100">
    <rect x="82" y="132" width="42" height="40"/>
    <rect x="148" y="204" width="42" height="40"/>
    <rect x="82" y="316" width="42" height="40"/>
    <rect x="292" y="194" width="42" height="40"/>
    <rect x="1010" y="128" width="42" height="40"/>
    <rect x="1080" y="270" width="42" height="40"/>
  </g>
  <g fill="#00d5ff">
    <rect x="148" y="408" width="42" height="40"/>
    <rect x="292" y="366" width="42" height="40"/>
    <rect x="812" y="176" width="42" height="40"/>
    <rect x="812" y="344" width="42" height="40"/>
    <rect x="1010" y="420" width="42" height="40"/>
  </g>
  <path d="M0 622h1200v178H0Z" fill="#050505"/>
  <path d="M0 748 482 622h210L214 800H0Z" fill="#fffaf3"/>
  <path d="M446 800 765 622h160L650 800Z" fill="#fffaf3"/>
  <path d="M852 800 1012 622h120L1038 800Z" fill="#fffaf3"/>
  <rect x="445" y="452" width="312" height="72" fill="#ffd100" stroke="#050505" stroke-width="10" transform="rotate(-7 601 488)"/>
  <text x="600" y="506" text-anchor="middle" font-family="Impact, Arial Black, sans-serif" font-size="58" fill="#050505">CITY</text>
  <rect width="1200" height="800" fill="url(#dots)" opacity=".35"/>
</svg>
