<svg xmlns="http://www.w3.org/2000/svg" viewBox="0 0 1200 800" role="img" aria-labelledby="title desc">
  <title id="title">Mountain ridge placeholder</title>
  <desc id="desc">A bold mountain trail scene with red sun, yellow sky, and black ridge lines.</desc>
  <defs>
    <pattern id="dots" width="30" height="30" patternUnits="userSpaceOnUse">
      <circle cx="8" cy="8" r="4" fill="#050505" opacity=".22"/>
    </pattern>
  </defs>
  <rect width="1200" height="800" fill="#ffd100"/>
  <circle cx="926" cy="166" r="116" fill="#e50914" stroke="#050505" stroke-width="12"/>
  <path d="M0 508 228 292l178 144 152-192 238 264 132-122 272 222v192H0Z" fill="#050505"/>
  <path d="M0 555 230 364l176 124 154-154 236 230 132-98 272 170v164H0Z" fill="#fffaf3" stroke="#050505" stroke-width="10"/>
  <path d="M0 672c138-72 270-96 398-72 162 31 250 124 408 103 120-16 206-89 394-103v200H0Z" fill="#e50914" stroke="#050505" stroke-width="10"/>
  <path d="M464 800c78-114 134-178 194-230 47 77 83 150 114 230Z" fill="#050505"/>
  <path d="M596 800c42-91 82-151 122-196" fill="none" stroke="#fffaf3" stroke-width="12" stroke-linecap="round"/>
  <rect x="102" y="112" width="344" height="112" fill="#fffaf3" stroke="#050505" stroke-width="12" transform="rotate(-6 274 168)"/>
  <text x="274" y="193" text-anchor="middle" font-family="Impact, Arial Black, sans-serif" font-size="76" fill="#050505">RIDGE</text>
  <rect width="1200" height="800" fill="url(#dots)" opacity=".55"/>
</svg>
