<svg xmlns="http://www.w3.org/2000/svg" viewBox="0 0 1200 800" role="img" aria-labelledby="title desc">
  <title id="title">Friends at station placeholder</title>
  <desc id="desc">A stylized transit station scene with abstract friend silhouettes.</desc>
  <defs>
    <pattern id="dots" width="26" height="26" patternUnits="userSpaceOnUse">
      <circle cx="7" cy="7" r="3.8" fill="#fffaf3" opacity=".32"/>
    </pattern>
  </defs>
  <rect width="1200" height="800" fill="#050505"/>
  <path d="M0 0h1200v174L0 316Z" fill="#e50914"/>
  <path d="M0 240 1200 92v58L0 382Z" fill="#fffaf3"/>
  <path d="M0 612h1200v188H0Z" fill="#fffaf3"/>
  <path d="M0 700h1200" stroke="#050505" stroke-width="18"/>
  <g transform="translate(208 252)">
    <circle cx="70" cy="72" r="54" fill="#ffd100" stroke="#050505" stroke-width="10"/>
    <path d="M16 318 36 142h68l30 176Z" fill="#e50914" stroke="#050505" stroke-width="10"/>
  </g>
  <g transform="translate(430 210)">
    <circle cx="80" cy="82" r="62" fill="#00d5ff" stroke="#050505" stroke-width="10"/>
    <path d="M22 360 48 162h76l42 198Z" fill="#fffaf3" stroke="#050505" stroke-width="10"/>
  </g>
  <g transform="translate(680 250)">
    <circle cx="72" cy="72" r="54" fill="#e50914" stroke="#050505" stroke-width="10"/>
    <path d="M14 318 38 142h72l34 176Z" fill="#ffd100" stroke="#050505" stroke-width="10"/>
  </g>
  <g transform="translate(894 230)">
    <circle cx="72" cy="72" r="54" fill="#fffaf3" stroke="#050505" stroke-width="10"/>
    <path d="M14 338 38 142h72l34 196Z" fill="#00d5ff" stroke="#050505" stroke-width="10"/>
  </g>
  <rect x="96" y="88" width="296" height="106" fill="#ffd100" stroke="#050505" stroke-width="12" transform="rotate(4 244 141)"/>
  <text x="244" y="164" text-anchor="middle" font-family="Impact, Arial Black, sans-serif" font-size="68" fill="#050505">CREW</text>
  <rect width="1200" height="800" fill="url(#dots)"/>
</svg>
