<svg width="3649" height="2710" viewBox="0 0 3649 2710" fill="none" xmlns="http://www.w3.org/2000/svg">
<g filter="url(#filter0_d_21_4)">
<g filter="url(#filter1_i_21_4)">
<path d="M1700.81 741.881L290.112 0.5H375.445L2393.2 1012.34L1671.64 1049.11L2156.64 1367.01L1524.74 1414.46L1833.67 1664.75L1168.29 1752.53L1340.03 2148.73L2882.51 1982.66L3642.95 2342.08L3514.41 2389.53L3076.94 2524.75L2959.2 2701.5H2351.07L2755.05 2342.08L2564.94 2206.85L4.94849 2524.75L513.707 1664.75L1486.94 1617.3L1201.77 1367.01L1833.67 1340.92L1340.03 975.565H1875.8L1552.83 777.467L1700.81 741.881Z" fill="#0A0A0A"/>
</g>
<path d="M1700.81 741.881L290.112 0.5H375.445L2393.2 1012.34L1671.64 1049.11L2156.64 1367.01L1524.74 1414.46L1833.67 1664.75L1168.29 1752.53L1340.03 2148.73L2882.51 1982.66L3642.95 2342.08L3514.41 2389.53L3076.94 2524.75L2959.2 2701.5H2351.07L2755.05 2342.08L2564.94 2206.85L4.94849 2524.75L513.707 1664.75L1486.94 1617.3L1201.77 1367.01L1833.67 1340.92L1340.03 975.565H1875.8L1552.83 777.467L1700.81 741.881Z" stroke="#0A0A0A"/>
</g>
<g filter="url(#filter2_d_21_4)">
<g filter="url(#filter3_i_21_4)">
<path d="M1644.85 696.042L366.383 0.5H443.718L2272.34 949.776L1618.42 984.275L2057.96 1282.52L1485.29 1327.04L1765.26 1561.85L1162.24 1644.21L1317.89 2015.9L2715.79 1860.1L3404.95 2197.3L3288.46 2241.82L2891.99 2368.68L2785.29 2534.5H2234.16L2600.28 2197.3L2427.99 2070.43L107.948 2368.68L569.019 1561.85L1451.03 1517.34L1192.59 1282.52L1765.26 1258.04L1317.89 915.277H1803.44L1510.74 729.428L1644.85 696.042Z" fill="#FF1A1A"/>
</g>
<path d="M1644.85 696.042L366.383 0.5H443.718L2272.34 949.776L1618.42 984.275L2057.96 1282.52L1485.29 1327.04L1765.26 1561.85L1162.24 1644.21L1317.89 2015.9L2715.79 1860.1L3404.95 2197.3L3288.46 2241.82L2891.99 2368.68L2785.29 2534.5H2234.16L2600.28 2197.3L2427.99 2070.43L107.948 2368.68L569.019 1561.85L1451.03 1517.34L1192.59 1282.52L1765.26 1258.04L1317.89 915.277H1803.44L1510.74 729.428L1644.85 696.042Z" stroke="#0A0A0A"/>
</g>
<defs>
<filter id="filter0_d_21_4" x="0" y="0" width="3648.24" height="2710" filterUnits="userSpaceOnUse" color-interpolation-filters="sRGB">
<feFlood flood-opacity="0" result="BackgroundImageFix"/>
<feColorMatrix in="SourceAlpha" type="matrix" values="0 0 0 0 0 0 0 0 0 0 0 0 0 0 0 0 0 0 127 0" result="hardAlpha"/>
<feOffset dy="4"/>
<feGaussianBlur stdDeviation="2"/>
<feComposite in2="hardAlpha" operator="out"/>
<feColorMatrix type="matrix" values="0 0 0 0 0 0 0 0 0 0 0 0 0 0 0 0 0 0 0.25 0"/>
<feBlend mode="normal" in2="BackgroundImageFix" result="effect1_dropShadow_21_4"/>
<feBlend mode="normal" in="SourceGraphic" in2="effect1_dropShadow_21_4" result="shape"/>
</filter>
<filter id="filter1_i_21_4" x="4" y="0" width="3640.24" height="2706" filterUnits="userSpaceOnUse" color-interpolation-filters="sRGB">
<feFlood flood-opacity="0" result="BackgroundImageFix"/>
<feBlend mode="normal" in="SourceGraphic" in2="BackgroundImageFix" result="shape"/>
<feColorMatrix in="SourceAlpha" type="matrix" values="0 0 0 0 0 0 0 0 0 0 0 0 0 0 0 0 0 0 127 0" result="hardAlpha"/>
<feOffset dy="4"/>
<feGaussianBlur stdDeviation="2"/>
<feComposite in2="hardAlpha" operator="arithmetic" k2="-1" k3="1"/>
<feColorMatrix type="matrix" values="0 0 0 0 0 0 0 0 0 0 0 0 0 0 0 0 0 0 0.25 0"/>
<feBlend mode="normal" in2="shape" result="effect1_innerShadow_21_4"/>
</filter>
<filter id="filter2_d_21_4" x="103.016" y="0" width="3307.19" height="2543" filterUnits="userSpaceOnUse" color-interpolation-filters="sRGB">
<feFlood flood-opacity="0" result="BackgroundImageFix"/>
<feColorMatrix in="SourceAlpha" type="matrix" values="0 0 0 0 0 0 0 0 0 0 0 0 0 0 0 0 0 0 127 0" result="hardAlpha"/>
<feOffset dy="4"/>
<feGaussianBlur stdDeviation="2"/>
<feComposite in2="hardAlpha" operator="out"/>
<feColorMatrix type="matrix" values="0 0 0 0 0 0 0 0 0 0 0 0 0 0 0 0 0 0 0.25 0"/>
<feBlend mode="normal" in2="BackgroundImageFix" result="effect1_dropShadow_21_4"/>
<feBlend mode="normal" in="SourceGraphic" in2="effect1_dropShadow_21_4" result="shape"/>
</filter>
<filter id="filter3_i_21_4" x="107.016" y="0" width="3299.19" height="2539" filterUnits="userSpaceOnUse" color-interpolation-filters="sRGB">
<feFlood flood-opacity="0" result="BackgroundImageFix"/>
<feBlend mode="normal" in="SourceGraphic" in2="BackgroundImageFix" result="shape"/>
<feColorMatrix in="SourceAlpha" type="matrix" values="0 0 0 0 0 0 0 0 0 0 0 0 0 0 0 0 0 0 127 0" result="hardAlpha"/>
<feOffset dy="4"/>
<feGaussianBlur stdDeviation="2"/>
<feComposite in2="hardAlpha" operator="arithmetic" k2="-1" k3="1"/>
<feColorMatrix type="matrix" values="0 0 0 0 0 0 0 0 0 0 0 0 0 0 0 0 0 0 0.25 0"/>
<feBlend mode="normal" in2="shape" result="effect1_innerShadow_21_4"/>
</filter>
</defs>
</svg>
