<svg width="3491" height="2104" viewBox="0 0 3491 2104" fill="none" xmlns="http://www.w3.org/2000/svg">
<g filter="url(#filter0_df_21_3)">
<path d="M4.80859 2033.69L132.763 1828.27L601.057 1232.27L405.978 1127.69L572.739 1004.97L452.126 922.263L373.99 755.788L1402.87 420.172L1314.25 788.336H1637.28L1491.5 1629.78L2314.81 1232.27L2375.12 922.263L2201.02 788.336L2233.01 705.633L2034.26 636.802L2108.72 575.441L3048.98 5.05322L2857.57 788.336L3127.12 705.633L3106.14 922.263L3485.81 1257.88L3301.22 1395.01L2857.57 1311.77L3020.66 788.336L2729.62 867.839L2815.09 185.4L2201.02 604.254L2449.58 705.633L2375.12 755.788L2428.08 788.336L2477.9 922.263L2740.63 1080.73L1889 1828.27L1580.12 1785.05L1314.25 1875.22L1374.55 1759.44L1033.69 1875.22L1431.19 853.432L1183.15 882.245L1257.61 705.633L530.262 882.245L767.818 1044.98L618.887 1163.97L735.829 1232.27L321.025 2095.05L4.80859 2033.69Z" fill="#0A0A0A"/>
<path d="M4.80859 2033.69L132.763 1828.27L601.057 1232.27L405.978 1127.69L572.739 1004.97L452.126 922.263L373.99 755.788L1402.87 420.172L1314.25 788.336H1637.28L1491.5 1629.78L2314.81 1232.27L2375.12 922.263L2201.02 788.336L2233.01 705.633L2034.26 636.802L2108.72 575.441L3048.98 5.05322L2857.57 788.336L3127.12 705.633L3106.14 922.263L3485.81 1257.88L3301.22 1395.01L2857.57 1311.77L3020.66 788.336L2729.62 867.839L2815.09 185.4L2201.02 604.254L2449.58 705.633L2375.12 755.788L2428.08 788.336L2477.9 922.263L2740.63 1080.73L1889 1828.27L1580.12 1785.05L1314.25 1875.22L1374.55 1759.44L1033.69 1875.22L1431.19 853.432L1183.15 882.245L1257.61 705.633L530.262 882.245L767.818 1044.98L618.887 1163.97L735.829 1232.27L321.025 2095.05L4.80859 2033.69Z" stroke="#0A0A0A"/>
</g>
<g filter="url(#filter1_d_21_3)">
<path d="M85.8086 1971.55L207.809 1779.05L654.309 1220.55L468.309 1122.55L627.309 1007.55L512.309 930.053L437.809 774.053L1418.81 459.553L1334.31 804.553H1642.31L1503.31 1593.05L2288.31 1220.55L2345.81 930.053L2179.81 804.553L2210.31 727.053L2020.81 662.553L2091.81 605.053L2988.31 70.5532L2805.81 804.553L3062.81 727.053L3042.81 930.053L3404.81 1244.55L3228.81 1373.05L2805.81 1295.05L2961.31 804.553L2683.81 879.053L2765.31 239.553L2179.81 632.053L2416.81 727.053L2345.81 774.053L2396.31 804.553L2443.81 930.053L2694.31 1078.55L1882.31 1779.05L1587.81 1738.55L1334.31 1823.05L1391.81 1714.55L1066.81 1823.05L1445.81 865.553L1209.31 892.553L1280.31 727.053L586.809 892.553L813.309 1045.05L671.309 1156.55L782.809 1220.55L387.309 2029.05L85.8086 1971.55Z" fill="#FF1A1A"/>
<path d="M85.8086 1971.55L207.809 1779.05L654.309 1220.55L468.309 1122.55L627.309 1007.55L512.309 930.053L437.809 774.053L1418.81 459.553L1334.31 804.553H1642.31L1503.31 1593.05L2288.31 1220.55L2345.81 930.053L2179.81 804.553L2210.31 727.053L2020.81 662.553L2091.81 605.053L2988.31 70.5532L2805.81 804.553L3062.81 727.053L3042.81 930.053L3404.81 1244.55L3228.81 1373.05L2805.81 1295.05L2961.31 804.553L2683.81 879.053L2765.31 239.553L2179.81 632.053L2416.81 727.053L2345.81 774.053L2396.31 804.553L2443.81 930.053L2694.31 1078.55L1882.31 1779.05L1587.81 1738.55L1334.31 1823.05L1391.81 1714.55L1066.81 1823.05L1445.81 865.553L1209.31 892.553L1280.31 727.053L586.809 892.553L813.309 1045.05L671.309 1156.55L782.809 1220.55L387.309 2029.05L85.8086 1971.55Z" stroke="#0A0A0A"/>
</g>
<defs>
<filter id="filter0_df_21_3" x="0" y="0" width="3490.6" height="2103.62" filterUnits="userSpaceOnUse" color-interpolation-filters="sRGB">
<feFlood flood-opacity="0" result="BackgroundImageFix"/>
<feColorMatrix in="SourceAlpha" type="matrix" values="0 0 0 0 0 0 0 0 0 0 0 0 0 0 0 0 0 0 127 0" result="hardAlpha"/>
<feOffset dy="4"/>
<feGaussianBlur stdDeviation="2"/>
<feComposite in2="hardAlpha" operator="out"/>
<feColorMatrix type="matrix" values="0 0 0 0 0 0 0 0 0 0 0 0 0 0 0 0 0 0 0.25 0"/>
<feBlend mode="normal" in2="BackgroundImageFix" result="effect1_dropShadow_21_3"/>
<feBlend mode="normal" in="SourceGraphic" in2="effect1_dropShadow_21_3" result="shape"/>
<feGaussianBlur stdDeviation="2" result="effect2_foregroundBlur_21_3"/>
</filter>
<filter id="filter1_d_21_3" x="80.9927" y="69.509" width="3328.62" height="1968.11" filterUnits="userSpaceOnUse" color-interpolation-filters="sRGB">
<feFlood flood-opacity="0" result="BackgroundImageFix"/>
<feColorMatrix in="SourceAlpha" type="matrix" values="0 0 0 0 0 0 0 0 0 0 0 0 0 0 0 0 0 0 127 0" result="hardAlpha"/>
<feOffset dy="4"/>
<feGaussianBlur stdDeviation="2"/>
<feComposite in2="hardAlpha" operator="out"/>
<feColorMatrix type="matrix" values="0 0 0 0 0 0 0 0 0 0 0 0 0 0 0 0 0 0 0.25 0"/>
<feBlend mode="normal" in2="BackgroundImageFix" result="effect1_dropShadow_21_3"/>
<feBlend mode="normal" in="SourceGraphic" in2="effect1_dropShadow_21_3" result="shape"/>
</filter>
</defs>
</svg>
